<?xml version="1.0" encoding="UTF-8" standalone="no"?>
<svg
   xmlns:dc="http://purl.org/dc/elements/1.1/"
   xmlns:cc="http://creativecommons.org/ns#"
   xmlns:rdf="http://www.w3.org/1999/02/22-rdf-syntax-ns#"
   xmlns:svg="http://www.w3.org/2000/svg"
   xmlns="http://www.w3.org/2000/svg"
   width="286"
   height="64"
   viewBox="0 0 75.670833 16.933333"
   version="1.1"
   id="svg8">
  <title
     id="title57">MSYS2 banner</title>
  <defs
     id="defs2" />
  <metadata
     id="metadata5">
    <rdf:RDF>
      <cc:Work
         rdf:about="">
        <dc:format>image/svg+xml</dc:format>
        <dc:type
           rdf:resource="http://purl.org/dc/dcmitype/StillImage" />
        <dc:title>MSYS2 banner</dc:title>
      </cc:Work>
    </rdf:RDF>
  </metadata>
  <g
     id="layer2">
    <rect
       style="fill:#800080;stroke:#7d4d4d;stroke-width:0;stroke-linecap:square;stroke-opacity:0.878431;paint-order:stroke fill markers"
       id="rect24"
       width="17.944721"
       height="16.748411"
       x="0.29907849"
       y="-2.7353948e-07" />
  </g>
  <g
     id="layer1">
    <g
       id="g47"
       transform="matrix(0.96763746,0,0,1,-0.40090904,-0.07963937)">
      <path
         id="rect988"
         style="fill:#ffffff;fill-opacity:1;fill-rule:nonzero;stroke:none;stroke-width:5.04095;stroke-linecap:butt;stroke-linejoin:bevel;stroke-miterlimit:4;stroke-dasharray:none;stroke-opacity:1;paint-order:markers fill stroke"
         d="m 6.8464054,2.3910899 c -0.079928,3.101e-4 -0.163804,0.00318 -0.2521122,0.0083 -0.9025443,0.052373 -1.379634,0.4047037 -0.8704453,0.6324696 0.2180916,0.1094218 0.1528765,0.3012498 0.1528765,0.3941995 0,0.4121502 -2.8586189,6.1674484 -3.6853731,7.419793 -0.5511842,0.83492 -0.513253,1.090302 0.1472687,0.991669 0.2487187,-0.03712 0.6697122,-0.20001 0.935546,-0.361892 h 2.496e-4 C 3.9578821,11.059438 4.3687266,10.389527 5.4032274,8.0036668 5.9020005,6.8533499 6.3928123,5.756948 6.4363023,5.8332129 c 0.043488,0.076261 0.069893,0.7956673 0.1163031,1.3326955 0.1698603,1.9655215 0.6882114,3.6260616 1.3476055,4.3171256 0.4249443,0.445351 0.711096,0.492541 1.028686,0.169616 0.1206361,-0.12266 0.7150326,-1.283276 1.3207851,-2.579237 0.605752,-1.2959611 1.183681,-2.5362046 1.25544,-2.6496859 0.09837,-0.155569 0.108406,0.120888 0.113134,0.8570534 0.01349,2.1035286 0.418229,3.3966065 1.274459,4.0710035 0.789419,0.621781 1.428768,0.59846 2.190987,-0.07942 0.472546,-0.420261 0.506326,-0.679153 0.143611,-1.101606 L 14.965198,9.8654026 C 13.452786,7.182224 13.987156,5.3112474 13.987227,3.9851642 l 0.0434,-0.6102579 c 0.04114,-0.3197431 0.04307,-0.6572447 0.0041,-0.7500339 -0.09828,-0.2356675 -1.16441,-0.220955 -1.722116,0.023782 C 11.766933,2.888121 11.227352,3.8090998 10.116304,6.3972533 9.6875662,7.3959912 9.2924892,8.1713788 9.2383001,8.1203344 9.184117,8.0692942 8.9952165,7.1188484 8.8186833,6.0082139 8.3379351,2.9836572 8.0453176,2.3863813 6.8464054,2.3910899 Z m 4.0240416,9.5994461 c -0.666962,0 -0.8738585,0.144724 -0.8738585,0.611604 0,0.257168 0.1464675,0.458284 0.6241845,0.857054 0.73567,0.6141 0.817687,0.943655 0.235045,0.943655 -0.347688,0 -0.38272,-0.03052 -0.329404,-0.28718 0.05001,-0.240743 0.01206,-0.28718 -0.235044,-0.28718 -0.250266,0 -0.2947815,0.05734 -0.2947815,0.379167 0,0.544423 0.1985765,0.669975 0.9977205,0.6309 0.660564,0.0039 0.683836,0.01925 0.72464,-0.556861 0.03557,-0.502469 0.01217,-0.542328 -0.592976,-1.011861 -0.72719,-0.564229 -0.806853,-0.81981 -0.255526,-0.81981 0.316255,0 0.374511,0.04467 0.374511,0.28718 0,0.2106 0.06658,0.287181 0.249674,0.287181 0.199233,0 0.249674,-0.07667 0.249674,-0.379168 0,-0.510557 -0.192468,-0.654681 -0.873859,-0.654681 z m 1.524133,0 c -0.226603,0 -0.283197,0.04638 -0.225535,0.184648 0.04232,0.101537 0.221362,0.708161 0.397674,1.348176 0.301104,1.093034 0.312442,1.316426 0.106306,2.072184 -0.06865,0.25168 -0.03984,0.300642 0.176527,0.300642 0.193132,0 0.290045,-0.108809 0.383533,-0.43077 0.156528,-0.539056 0.883124,-3.356971 0.883124,-3.424848 0,-0.02757 -0.109608,-0.05003 -0.243578,-0.05003 -0.203498,0 -0.279161,0.152113 -0.459605,0.92481 -0.118934,0.50928 -0.254635,0.857713 -0.302096,0.775386 -0.0474,-0.08223 -0.159861,-0.498349 -0.249918,-0.92481 -0.148356,-0.702526 -0.192316,-0.775386 -0.466432,-0.775386 z m 2.969999,0 c -0.677965,0 -0.873859,0.144441 -0.873859,0.644136 0,0.301356 0.113562,0.455811 0.624185,0.849201 0.728606,0.561333 0.825776,0.918976 0.249674,0.918976 -0.31625,0 -0.374511,-0.04467 -0.374511,-0.28718 0,-0.210599 -0.06658,-0.28718 -0.249674,-0.28718 -0.192637,0 -0.249674,0.07655 -0.249674,0.335193 0,0.649694 0.08507,0.712062 0.920673,0.675098 0.795137,-0.03365 0.752767,0.133921 0.801931,-0.562918 0.03628,-0.514487 0.02001,-0.541102 -0.592976,-0.971253 -0.7297,-0.512064 -0.832212,-0.854585 -0.255769,-0.854585 0.316254,0 0.374511,0.04467 0.374511,0.28718 0,0.2106 0.06658,0.287181 0.249674,0.287181 0.199232,0 0.249674,-0.07667 0.249674,-0.379168 0,-0.510557 -0.192469,-0.654681 -0.873859,-0.654681 z" />
      <g
         id="g957"
         transform="matrix(0.47182481,0,0,0.43416217,-28.626404,-53.954711)">
        <path
           id="path961"
           style="fill:#ffffff;fill-opacity:1;stroke-width:0.264583"
           d="m 92.863281,132.6875 c -1.325312,-0.004 -2.693816,0.50031 -3.740234,1.26367 -1.046418,0.76336 -1.779297,1.79104 -1.779297,2.85742 0,0.71898 0.268416,1.23699 0.6875,1.44532 0.419084,0.20832 0.954192,0.0768 1.404297,-0.39844 0.450001,-0.47516 0.803753,-0.72041 1.058594,-0.76563 0.12742,-0.0226 0.230649,-0.002 0.33789,0.0605 0.107242,0.063 0.21711,0.17432 0.328125,0.34375 0.299549,0.45717 0.235636,1.27504 -0.238281,2.42969 -0.473917,1.15465 -1.342844,2.63121 -2.568359,4.39062 -0.464348,0.66665 -0.796883,1.15334 -0.97461,1.52539 -0.08886,0.18603 -0.140395,0.34435 -0.140625,0.49414 -2.3e-4,0.1498 0.06691,0.29046 0.185547,0.38086 0.237266,0.18082 0.623937,0.22069 1.222656,0.24219 0.59872,0.0215 1.410329,0.008 2.46875,0.008 1.592343,0 2.492098,-0.0589 2.992188,-0.0234 0.250045,0.0177 0.390525,0.06 0.474609,0.12304 0.08408,0.0631 0.135468,0.15824 0.185547,0.3418 0.05667,0.20772 0.139906,0.36767 0.253906,0.47852 0.114001,0.11084 0.262319,0.16596 0.41211,0.16015 0.299581,-0.0116 0.593206,-0.22512 0.876953,-0.55664 0.567494,-0.66304 1.091253,-1.84401 1.208984,-3.21875 a 0.12981069,0.12981069 0 0 0 0,-0.002 c 0.03553,-0.43648 0.03598,-1.28253 -0.177734,-1.85547 -0.05343,-0.14324 -0.120244,-0.27125 -0.212891,-0.37109 -0.09265,-0.0999 -0.217058,-0.16986 -0.359375,-0.17969 -0.284634,-0.0197 -0.590018,0.17269 -0.966797,0.60742 -0.411927,0.44599 -0.766718,0.67969 -1.017578,0.75195 -0.125655,0.0362 -0.221297,0.0328 -0.292968,0.008 -0.07167,-0.025 -0.125748,-0.0698 -0.167969,-0.14844 -0.08444,-0.15731 -0.103572,-0.45837 0.0059,-0.84766 0.109431,-0.38928 0.342325,-0.8654 0.720703,-1.38086 0.940736,-1.28153 1.514114,-2.48066 1.708985,-3.58203 0.19487,-1.10137 0.0046,-2.10596 -0.574219,-2.96484 -0.39764,-0.59006 -0.816869,-0.99912 -1.345703,-1.25586 -0.528835,-0.25674 -1.15894,-0.3588 -1.976563,-0.36133 z" />
        <path
           id="path961-6"
           style="fill:#ef7e19;fill-opacity:1;stroke-width:0.264583"
           d="m 92.408203,133.36719 c -1.772302,0.2148 -3.69312,1.19636 -4.329081,2.9583 -0.135384,0.44201 -0.158478,1.35851 0.467753,1.35224 0.735396,-0.41481 1.306877,-1.44088 2.291016,-1.22656 1.18361,0.34724 1.36333,1.84845 0.99414,2.86133 -0.771992,2.52505 -2.503328,4.57989 -3.853515,6.80078 0.196261,0.34154 1.113672,0.11648 1.577678,0.1956 1.661369,0.062 3.335542,-0.12942 4.988728,0.0329 0.508253,0.0868 0.794693,0.55821 0.910156,1.02148 1.140848,-0.94899 1.48432,-2.60526 1.396912,-4.03295 0.0095,-0.46427 -0.171503,-1.11507 -0.57074,-0.40845 -0.547745,0.63432 -1.630048,1.42355 -2.388672,0.67382 -0.711306,-0.9905 0.0185,-2.26055 0.619141,-3.125 1.094164,-1.51495 2.21118,-3.53951 1.346183,-5.41324 -0.469133,-1.08505 -1.580799,-1.77994 -2.765073,-1.70253 -0.228473,-0.02 -0.456216,0.004 -0.684626,0.0123 z" />
      </g>
    </g>
    <text
       xml:space="preserve"
       style="font-style:normal;font-variant:normal;font-weight:300;font-stretch:normal;font-size:10.5833px;line-height:1.25;font-family:Montserrat;-inkscape-font-specification:'Montserrat, Light';font-variant-ligatures:normal;font-variant-caps:normal;font-variant-numeric:normal;font-variant-east-asian:normal;text-align:end;letter-spacing:0px;word-spacing:0px;text-anchor:end;fill:#483737;stroke-width:0.264583;"
       x="71.49984"
       y="12.018939"
       id="text19"><tspan
         id="tspan17"
         x="71.49984"
         y="12.018939"
         style="font-style:normal;font-variant:normal;font-weight:300;font-stretch:normal;font-size:10.5833px;font-family:Montserrat;-inkscape-font-specification:'Montserrat, Light';font-variant-ligatures:normal;font-variant-caps:normal;font-variant-numeric:normal;font-variant-east-asian:normal;fill:#483737;stroke-width:0.264583;">Packages</tspan></text>
  </g>
</svg>
